<svg width="192" height="173" viewBox="0 0 192 173" fill="none" xmlns="http://www.w3.org/2000/svg">
<path opacity="0.2" d="M169.6 121.821V83.2H99.2V50.9792C111.808 49.3952 121.6 38.6304 121.6 25.6C121.6 11.4848 110.115 0 96 0C81.8848 0 70.4 11.4848 70.4 25.6C70.4 38.6304 80.192 49.3952 92.8 50.9792V83.2H22.4V121.821C9.792 123.405 0 134.17 0 147.2C0 161.315 11.4848 172.8 25.6 172.8C39.7152 172.8 51.2 161.315 51.2 147.2C51.2 134.17 41.408 123.405 28.8 121.821V89.6H92.8V121.821C80.192 123.405 70.4 134.17 70.4 147.2C70.4 161.315 81.8848 172.8 96 172.8C110.115 172.8 121.6 161.315 121.6 147.2C121.6 134.17 111.808 123.405 99.2 121.821V89.6H163.2V121.821C150.592 123.405 140.8 134.17 140.8 147.2C140.8 161.315 152.285 172.8 166.4 172.8C180.515 172.8 192 161.315 192 147.2C192 134.17 182.208 123.405 169.6 121.821ZM76.8 25.6C76.8 15.0112 85.4112 6.4 96 6.4C106.589 6.4 115.2 15.0112 115.2 25.6C115.2 36.1888 106.589 44.8 96 44.8C85.4112 44.8 76.8 36.1888 76.8 25.6ZM44.8 147.2C44.8 157.789 36.1888 166.4 25.6 166.4C15.0112 166.4 6.4 157.789 6.4 147.2C6.4 136.611 15.0112 128 25.6 128C36.1888 128 44.8 136.611 44.8 147.2ZM115.2 147.2C115.2 157.789 106.589 166.4 96 166.4C85.4112 166.4 76.8 157.789 76.8 147.2C76.8 136.611 85.4112 128 96 128C106.589 128 115.2 136.611 115.2 147.2ZM166.4 166.4C155.811 166.4 147.2 157.789 147.2 147.2C147.2 136.611 155.811 128 166.4 128C176.989 128 185.6 136.611 185.6 147.2C185.6 157.789 176.989 166.4 166.4 166.4Z" fill="url(#paint0_linear_1_251)"/>
<defs>
<linearGradient id="paint0_linear_1_251" x1="96" y1="0" x2="96" y2="190" gradientUnits="userSpaceOnUse">
<stop stop-color="#5867DD"/>
<stop offset="1" stop-color="#5867DD" stop-opacity="0"/>
</linearGradient>
</defs>
</svg>
