<svg width="192" height="192" viewBox="0 0 192 192" fill="none" xmlns="http://www.w3.org/2000/svg">
<path opacity="0.2" d="M67.2 96C54.4696 96 42.2606 90.9429 33.2589 81.9411C24.2571 72.9394 19.2 60.7304 19.2 48C19.2 35.2696 24.2571 23.0606 33.2589 14.0589C42.2606 5.05713 54.4696 0 67.2 0C79.9304 0 92.1394 5.05713 101.141 14.0589C110.143 23.0606 115.2 35.2696 115.2 48C115.2 60.7304 110.143 72.9394 101.141 81.9411C92.1394 90.9429 79.9304 96 67.2 96ZM67.2 76.8C70.9821 76.8 74.7271 76.0551 78.2213 74.6077C81.7155 73.1604 84.8904 71.039 87.5647 68.3647C90.239 65.6904 92.3604 62.5155 93.8077 59.0213C95.2551 55.5271 96 51.7821 96 48C96 44.2179 95.2551 40.4729 93.8077 36.9787C92.3604 33.4845 90.239 30.3097 87.5647 27.6353C84.8904 24.961 81.7155 22.8396 78.2213 21.3923C74.7271 19.9449 70.9821 19.2 67.2 19.2C59.5618 19.2 52.2364 22.2343 46.8353 27.6353C41.4343 33.0364 38.4 40.3618 38.4 48C38.4 55.6382 41.4343 62.9636 46.8353 68.3647C52.2364 73.7657 59.5618 76.8 67.2 76.8ZM134.4 182.4C134.4 184.946 133.389 187.388 131.588 189.188C129.788 190.989 127.346 192 124.8 192C122.254 192 119.812 190.989 118.012 189.188C116.211 187.388 115.2 184.946 115.2 182.4V163.2C115.2 155.562 112.166 148.236 106.765 142.835C101.364 137.434 94.0382 134.4 86.4 134.4H48C40.3618 134.4 33.0364 137.434 27.6353 142.835C22.2343 148.236 19.2 155.562 19.2 163.2V182.4C19.2 184.946 18.1886 187.388 16.3882 189.188C14.5879 190.989 12.1461 192 9.6 192C7.05392 192 4.61212 190.989 2.81177 189.188C1.01143 187.388 0 184.946 0 182.4V163.2C0 150.47 5.05713 138.261 14.0589 129.259C23.0606 120.257 35.2696 115.2 48 115.2H86.4C99.1304 115.2 111.339 120.257 120.341 129.259C129.343 138.261 134.4 150.47 134.4 163.2V182.4ZM144 134.4C141.454 134.4 139.012 133.389 137.212 131.588C135.411 129.788 134.4 127.346 134.4 124.8C134.4 122.254 135.411 119.812 137.212 118.012C139.012 116.211 141.454 115.2 144 115.2C156.73 115.2 168.939 120.257 177.941 129.259C186.943 138.261 192 150.47 192 163.2V182.4C192 184.946 190.989 187.388 189.188 189.188C187.388 190.989 184.946 192 182.4 192C179.854 192 177.412 190.989 175.612 189.188C173.811 187.388 172.8 184.946 172.8 182.4V163.2C172.8 155.562 169.766 148.236 164.365 142.835C158.964 137.434 151.638 134.4 144 134.4ZM124.8 96C122.254 96 119.812 94.9886 118.012 93.1882C116.211 91.3879 115.2 88.9461 115.2 86.4C115.2 83.8539 116.211 81.4121 118.012 79.6118C119.812 77.8114 122.254 76.8 124.8 76.8C132.438 76.8 139.764 73.7657 145.165 68.3647C150.566 62.9636 153.6 55.6382 153.6 48C153.6 40.3618 150.566 33.0364 145.165 27.6353C139.764 22.2343 132.438 19.2 124.8 19.2C122.254 19.2 119.812 18.1886 118.012 16.3882C116.211 14.5879 115.2 12.1461 115.2 9.6C115.2 7.05392 116.211 4.61212 118.012 2.81177C119.812 1.01143 122.254 0 124.8 0C137.53 0 149.739 5.05713 158.741 14.0589C167.743 23.0606 172.8 35.2696 172.8 48C172.8 60.7304 167.743 72.9394 158.741 81.9411C149.739 90.9429 137.53 96 124.8 96Z" fill="url(#paint0_linear_1_245)"/>
<defs>
<linearGradient id="paint0_linear_1_245" x1="96" y1="0" x2="96" y2="192" gradientUnits="userSpaceOnUse">
<stop stop-color="#5867DD"/>
<stop offset="1" stop-color="#5867DD" stop-opacity="0"/>
</linearGradient>
</defs>
</svg>
