<svg width="195" height="213" viewBox="0 0 195 213" fill="none" xmlns="http://www.w3.org/2000/svg">
<path opacity="0.2" fill-rule="evenodd" clip-rule="evenodd" d="M57.5863 1.32968C58.5104 0.474833 59.7229 0 60.9818 0H63.5105H157.586C167.358 0 175.29 7.98516 175.312 17.6861L175.312 17.7254V101.985C175.312 104.747 173.073 106.985 170.312 106.985C167.551 106.985 165.312 104.747 165.312 101.985V17.7589L165.312 17.7258C165.312 13.5075 161.826 10 157.586 10H68.5105V51.9365L68.5109 51.9764L68.5109 52.0001C68.5109 58.4802 63.2093 63.8124 56.7049 63.8124L56.6924 63.8124H10.8765V194.912L10.8763 194.961C10.9028 199.179 14.4013 202.644 18.6082 202.644L18.6332 202.644H157.514C157.538 202.644 157.562 202.644 157.586 202.644C161.803 202.644 165.312 199.134 165.312 194.912C165.312 192.15 167.55 189.912 170.312 189.912C173.073 189.912 175.312 192.15 175.312 194.912C175.312 204.623 167.378 212.597 157.671 212.643C157.653 212.644 157.634 212.644 157.616 212.644L157.586 212.644H18.6082L18.5786 212.644C8.86527 212.628 0.876099 204.685 0.876099 194.912C0.876099 194.891 0.876227 194.871 0.876483 194.85V58.8124V55.9777C0.876483 54.5841 1.45809 53.2537 2.48108 52.3074L57.5863 1.32968ZM15.58 53.8124H56.7047L56.711 53.8124C57.6615 53.8089 58.4925 52.9915 58.5106 52.032L58.5105 52.0001V14.0975L15.58 53.8124ZM97.946 56.1293V31.596L142.883 31.3957V56.1293H97.946ZM87.946 57.8262V57.8258V29.9082C87.946 25.7976 91.0923 21.6657 95.8751 21.6058C95.9027 21.6052 95.9304 21.6049 95.9581 21.6047L146.163 21.381C148.162 21.3721 149.893 22.5374 150.7 24.2291C152.09 25.7831 152.883 27.8461 152.883 29.9077L152.883 29.9491V57.8258L152.883 57.8618L152.882 57.8994C152.845 62.031 149.67 66.0704 144.956 66.1282C144.922 66.1289 144.888 66.1293 144.854 66.1293H95.9983L95.9806 66.1293C91.1563 66.1293 87.946 62.0051 87.946 57.8262ZM20.9826 93.3428C20.9826 90.5814 23.2212 88.3428 25.9826 88.3428H148.164C150.925 88.3428 153.164 90.5814 153.164 93.3428C153.164 96.1043 150.925 98.3428 148.164 98.3428H25.9826C23.2212 98.3428 20.9826 96.1043 20.9826 93.3428ZM25.9826 130.698C23.2212 130.698 20.9826 132.936 20.9826 135.698C20.9826 138.459 23.2212 140.698 25.9826 140.698H110.005C112.767 140.698 115.005 138.459 115.005 135.698C115.005 132.936 112.767 130.698 110.005 130.698H25.9826ZM20.9826 178.065C20.9826 175.303 23.2212 173.065 25.9826 173.065H116.012C118.774 173.065 121.012 175.303 121.012 178.065C121.012 180.826 118.774 183.065 116.012 183.065H25.9826C23.2212 183.065 20.9826 180.826 20.9826 178.065ZM135.761 147.611C135.761 134.01 146.782 122.995 160.39 122.995C164.906 122.995 169.125 124.208 172.77 126.327C175.157 127.714 178.217 126.904 179.605 124.517C180.993 122.129 180.182 119.069 177.795 117.681C172.673 114.704 166.726 112.995 160.39 112.995C141.265 112.995 125.761 128.481 125.761 147.611C125.761 166.726 141.262 182.234 160.39 182.234C179.508 182.234 195 166.724 195 147.611C195 144.85 192.761 142.611 190 142.611C187.238 142.611 185 144.85 185 147.611C185 161.206 173.979 172.234 160.39 172.234C146.785 172.234 135.761 161.204 135.761 147.611ZM143.698 141.286C145.564 139.25 148.727 139.112 150.762 140.978L162.123 151.391L186.312 124.972C188.177 122.935 191.34 122.796 193.376 124.661C195.413 126.525 195.552 129.688 193.688 131.725L166.138 161.815C166.131 161.822 166.125 161.829 166.118 161.836C164.253 163.871 161.091 164.009 159.056 162.145C159.047 162.138 159.039 162.13 159.031 162.122L144.005 148.35C141.97 146.484 141.832 143.321 143.698 141.286Z" fill="url(#paint0_linear_1_279)"/>
<defs>
<linearGradient id="paint0_linear_1_279" x1="97.938" y1="0" x2="97.938" y2="216.5" gradientUnits="userSpaceOnUse">
<stop stop-color="#5867DD"/>
<stop offset="1" stop-color="#5867DD" stop-opacity="0"/>
</linearGradient>
</defs>
</svg>
