<svg width="193" height="192" viewBox="0 0 193 192" fill="none" xmlns="http://www.w3.org/2000/svg">
<path opacity="0.2" d="M5.30362 66.4296L91.7002 115.4C93.1595 116.226 94.8149 116.661 96.5 116.661C98.1851 116.661 99.8405 116.226 101.3 115.4L187.696 66.4296C189.147 65.6079 190.354 64.428 191.196 63.0072C192.038 61.5864 192.486 59.9741 192.496 58.3307C192.503 56.6713 192.063 55.0396 191.22 53.6008C190.377 52.162 189.161 50.9673 187.696 50.1376L101.3 1.26168C99.8405 0.43514 98.1851 0 96.5 0C94.8149 0 93.1595 0.43514 91.7002 1.26168L5.30362 50.1376C3.83867 50.9673 2.62323 52.162 1.78035 53.6008C0.93747 55.0396 0.497093 56.6713 0.503808 58.3307C0.51392 59.9741 0.962276 61.5864 1.80431 63.0072C2.64635 64.428 3.85275 65.6079 5.30362 66.4296ZM96.5 20.6614L163.697 58.3307L96.5 96L29.3027 58.3307L96.5 20.6614ZM178.097 88.1836L96.5 133.669L14.9032 87.8069C13.8076 87.1842 12.5972 86.7804 11.3418 86.6186C10.0864 86.4567 8.81071 86.5402 7.58829 86.864C6.36588 87.1879 5.22085 87.7458 4.21916 88.5057C3.21747 89.2655 2.3789 90.2122 1.75176 91.2913C0.500234 93.4537 0.17129 96.0139 0.836706 98.4133C1.50212 100.813 3.10788 102.857 5.30362 104.099L91.7002 153.069C93.1595 153.896 94.8149 154.331 96.5 154.331C98.1851 154.331 99.8405 153.896 101.3 153.069L187.696 104.099C189.892 102.857 191.498 100.813 192.163 98.4133C192.829 96.0139 192.5 93.4537 191.248 91.2913C190.621 90.2122 189.783 89.2655 188.781 88.5057C187.779 87.7458 186.634 87.1879 185.412 86.864C184.189 86.5402 182.914 86.4567 181.658 86.6186C180.403 86.7804 179.192 87.1842 178.097 87.8069V88.1836ZM178.097 125.853L96.5 171.339L14.9032 125.476C13.8076 124.854 12.5972 124.45 11.3418 124.288C10.0864 124.126 8.81071 124.209 7.58829 124.533C6.36588 124.857 5.22085 125.415 4.21916 126.175C3.21747 126.935 2.3789 127.882 1.75176 128.961C0.500234 131.123 0.17129 133.683 0.836706 136.083C1.50212 138.482 3.10788 140.526 5.30362 141.768L91.7002 190.738C93.1595 191.565 94.8149 192 96.5 192C98.1851 192 99.8405 191.565 101.3 190.738L187.696 141.768C189.892 140.526 191.498 138.482 192.163 136.083C192.829 133.683 192.5 131.123 191.248 128.961C190.621 127.882 189.783 126.935 188.781 126.175C187.779 125.415 186.634 124.857 185.412 124.533C184.189 124.209 182.914 124.126 181.658 124.288C180.403 124.45 179.192 124.854 178.097 125.476V125.853Z" fill="url(#paint0_linear_1013_66)"/>
<defs>
<linearGradient id="paint0_linear_1013_66" x1="96.5" y1="0" x2="96.5" y2="225.5" gradientUnits="userSpaceOnUse">
<stop stop-color="#5867DD"/>
<stop offset="1" stop-color="#5867DD" stop-opacity="0"/>
</linearGradient>
</defs>
</svg>
