<svg width="34" height="30" viewBox="0 0 34 30" fill="none" xmlns="http://www.w3.org/2000/svg">
<path fill-rule="evenodd" clip-rule="evenodd" d="M4.32394 23.8904C4.6901 24.2315 5.22327 24.3227 5.68107 24.1204C6.13926 23.9221 6.43558 23.4698 6.43558 22.97C6.43717 19.8876 6.43718 15.3137 6.43718 15.3137C6.43718 14.4052 7.17386 13.6713 8.08072 13.6713C8.98758 13.6713 9.72425 14.4052 9.72425 15.3137V27.9327C10.5371 28.385 11.3503 28.7658 12.164 29.0712V9.73205C12.164 8.82757 12.9002 8.08975 13.8071 8.08975C14.7144 8.08975 15.4506 8.82757 15.4506 9.73205V29.9004C16.2639 29.9996 17.0771 30.0273 17.8903 29.9718V18.761C17.8903 17.8525 18.6266 17.1147 19.5335 17.1147C20.4407 17.1147 21.177 17.8525 21.177 18.761V29.3212C21.9899 29.0474 22.8031 28.6984 23.6167 28.262V13.9173C23.6167 13.0128 24.353 12.2749 25.2603 12.2749C26.1671 12.2749 26.9034 13.0128 26.9034 13.9173V23.1882C26.9034 23.696 27.2093 24.1522 27.679 24.3505C28.1487 24.5449 28.6898 24.4378 29.05 24.0768C29.8053 23.3112 30.5626 22.4741 31.3195 21.5538C34.0147 18.8602 34.0147 14.4846 31.3195 11.787L21.5535 2.0202C18.8583 -0.673401 14.4823 -0.673401 11.7875 2.0202L2.02109 11.787C-0.673698 14.4846 -0.673698 18.8602 2.02109 21.5538C2.78871 22.3908 3.55633 23.1723 4.32394 23.8904Z" fill="white"/>
</svg>
